<svg width="36" height="36" viewBox="0 0 36 36" fill="none" xmlns="http://www.w3.org/2000/svg">
<path d="M28.482 3.01801L32.982 7.51801L29.5515 10.95L25.0515 6.45001L28.482 3.01801ZM12 24H16.5L27.4305 13.0695L22.9305 8.5695L12 19.5V24Z" fill="#8F8F8F"/>
<path d="M28.5 28.5H12.237C12.198 28.5 12.1575 28.515 12.1185 28.515C12.069 28.515 12.0195 28.5015 11.9685 28.5H7.5V7.5H17.7705L20.7705 4.5H7.5C5.8455 4.5 4.5 5.844 4.5 7.5V28.5C4.5 30.156 5.8455 31.5 7.5 31.5H28.5C29.2956 31.5 30.0587 31.1839 30.6213 30.6213C31.1839 30.0587 31.5 29.2956 31.5 28.5V15.498L28.5 18.498V28.5Z" fill="#8F8F8F"/>
</svg>
